<svg width="32" height="32" viewBox="0 0 32 32" fill="none" xmlns="http://www.w3.org/2000/svg">
<rect width="32" height="32" fill="#E5E5E5"/>
<g clip-path="url(#clip0)">
<rect width="1440" height="7144" transform="translate(-1307 -3232)" fill="white"/>
<circle cx="16" cy="16" r="16" transform="rotate(-90 16 16)" fill="#263961"/>
<rect width="16" height="16" transform="translate(8 24) rotate(-90)" fill="#263961"/>
<path d="M18.5208 15.5199C18.6146 15.6136 18.6673 15.7407 18.6674 15.8733L18.6674 16.1266C18.6659 16.2589 18.6134 16.3855 18.5208 16.4799L15.0941 19.8999C15.0315 19.963 14.9463 19.9985 14.8574 19.9985C14.7685 19.9985 14.6833 19.963 14.6208 19.8999L14.1474 19.4266C14.0847 19.3652 14.0494 19.2811 14.0494 19.1933C14.0494 19.1055 14.0847 19.0214 14.1474 18.9599L17.1141 15.9999L14.1474 13.0399C14.0843 12.9773 14.0488 12.8921 14.0488 12.8033C14.0488 12.7144 14.0843 12.6292 14.1474 12.5666L14.6208 12.0999C14.6833 12.0368 14.7685 12.0013 14.8574 12.0013C14.9463 12.0013 15.0315 12.0368 15.0941 12.0999L18.5208 15.5199Z" fill="white"/>
</g>
<defs>
<clipPath id="clip0">
<rect width="1440" height="7144" fill="white" transform="translate(-1307 -3232)"/>
</clipPath>
</defs>
</svg>
