<svg width="18" height="14" viewBox="0 0 18 14" fill="none" xmlns="http://www.w3.org/2000/svg">
<path d="M7.5 3.41502L4.95225 5.50002H2.25V8.50002H4.95225L7.5 10.585V3.41502ZM4.41675 10H1.5C1.30109 10 1.11032 9.921 0.96967 9.78035C0.829018 9.63969 0.75 9.44893 0.75 9.25002V4.75002C0.75 4.5511 0.829018 4.36034 0.96967 4.21969C1.11032 4.07903 1.30109 4.00002 1.5 4.00002H4.41675L8.38725 0.751016C8.44219 0.705976 8.50879 0.677468 8.5793 0.668811C8.64981 0.660153 8.72133 0.671703 8.78553 0.702114C8.84973 0.732526 8.90398 0.780548 8.94195 0.84059C8.97991 0.900633 9.00005 0.970225 9 1.04127V12.9588C9.00005 13.0298 8.97991 13.0994 8.94195 13.1594C8.90398 13.2195 8.84973 13.2675 8.78553 13.2979C8.72133 13.3283 8.64981 13.3399 8.5793 13.3312C8.50879 13.3226 8.44219 13.2941 8.38725 13.249L4.4175 10H4.41675ZM14.5545 13.1005L13.4925 12.0385C14.2035 11.4059 14.7723 10.6298 15.1614 9.76128C15.5505 8.8928 15.7511 7.95169 15.75 7.00002C15.7509 5.99958 15.529 5.0115 15.1004 4.10754C14.6718 3.20359 14.0472 2.40644 13.272 1.77402L14.337 0.709016C15.2509 1.48268 15.9849 2.44638 16.488 3.53291C16.9912 4.61945 17.2512 5.80265 17.25 7.00002C17.25 9.41727 16.2105 11.5915 14.5545 13.1005ZM11.8973 10.4433L10.8307 9.37677C11.1949 9.09679 11.4897 8.73682 11.6924 8.32469C11.8952 7.91256 12.0004 7.45932 12 7.00002C12 5.92752 11.4375 4.98627 10.59 4.45602L11.6693 3.37677C12.2373 3.79466 12.6991 4.3404 13.0171 4.96985C13.3352 5.5993 13.5006 6.29478 13.5 7.00002C13.5 8.38152 12.8775 9.61752 11.8973 10.4433Z" fill="white"/>
</svg>
