<svg width="32" height="32" viewBox="0 0 32 32" fill="none" xmlns="http://www.w3.org/2000/svg">
<circle cx="16" cy="16" r="16" transform="rotate(90 16 16)" fill="#FDCA4A"/>
<rect width="16" height="16" transform="translate(24 8) rotate(90)" fill="#FDCA4A"/>
<path d="M13.4792 16.4801C13.3854 16.3864 13.3327 16.2593 13.3326 16.1267L13.3326 15.8734C13.3341 15.7411 13.3866 15.6145 13.4792 15.5201L16.9059 12.1001C16.9685 12.037 17.0537 12.0015 17.1426 12.0015C17.2315 12.0015 17.3167 12.037 17.3792 12.1001L17.8526 12.5734C17.9153 12.6348 17.9506 12.7189 17.9506 12.8067C17.9506 12.8945 17.9153 12.9786 17.8526 13.0401L14.8859 16.0001L17.8526 18.9601C17.9157 19.0227 17.9512 19.1079 17.9512 19.1967C17.9512 19.2856 17.9157 19.3708 17.8526 19.4334L17.3792 19.9001C17.3167 19.9632 17.2315 19.9987 17.1426 19.9987C17.0537 19.9987 16.9685 19.9632 16.9059 19.9001L13.4792 16.4801Z" fill="black"/>
</svg>
