<svg width="24" height="24" viewBox="0 0 24 24" fill="none" xmlns="http://www.w3.org/2000/svg">
<circle cx="12" cy="11.9999" r="12" transform="rotate(-90 12 11.9999)" fill="#202C53"/>
<rect width="12" height="12" transform="translate(6 17.9999) rotate(-90)" fill="#202C53"/>
<path d="M13.89 11.64C13.9603 11.7102 13.9999 11.8055 14 11.905L14 12.095C13.9988 12.1942 13.9594 12.2891 13.89 12.36L11.32 14.925C11.273 14.9723 11.2091 14.9989 11.1425 14.9989C11.0758 14.9989 11.0119 14.9723 10.965 14.925L10.61 14.57C10.5629 14.5239 10.5364 14.4608 10.5364 14.395C10.5364 14.3291 10.5629 14.266 10.61 14.22L12.835 12L10.61 9.77995C10.5626 9.73301 10.536 9.66911 10.536 9.60245C10.536 9.53579 10.5626 9.47189 10.61 9.42495L10.965 9.07495C11.0119 9.02762 11.0758 9.001 11.1425 9.001C11.2091 9.001 11.273 9.02762 11.32 9.07495L13.89 11.64Z" fill="white"/>
</svg>
