<svg width="7" height="10" viewBox="0 0 7 10" fill="none" xmlns="http://www.w3.org/2000/svg">
<path d="M5.84122 4.51983C5.94276 4.61354 5.99987 4.74068 6 4.87329V5.12671C5.99834 5.25903 5.94146 5.38565 5.84122 5.48017L2.13158 8.90137C2.06383 8.96449 1.97159 9 1.87537 9C1.77915 9 1.68692 8.96449 1.61916 8.90137L1.10674 8.42787C1.03885 8.3664 1.0006 8.28228 1.0006 8.19445C1.0006 8.10663 1.03885 8.0225 1.10674 7.96104L4.31839 5L1.10674 2.03896C1.03843 1.97635 1 1.89112 1 1.80221C1 1.7133 1.03843 1.62807 1.10674 1.56546L1.61916 1.09863C1.68692 1.03551 1.77915 1 1.87537 1C1.97159 1 2.06383 1.03551 2.13158 1.09863L5.84122 4.51983Z" fill="#202C53" stroke="#202C53" stroke-width="0.5"/>
</svg>
