<svg width="29" height="22" viewBox="0 0 29 22" fill="none" xmlns="http://www.w3.org/2000/svg">
<path d="M1.16291 12.1282L9.01253 0H13.9549L8.86717 10.3654C9.93317 10.8355 10.8053 11.5876 11.4837 12.6218C12.1621 13.609 12.5013 14.7137 12.5013 15.9359C12.5013 17.5812 11.8956 19.015 10.6842 20.2372C9.47285 21.4124 7.99499 22 6.25063 22C4.50627 22 3.0284 21.4124 1.81704 20.2372C0.605681 19.015 0 17.5812 0 15.9359C0 14.5727 0.387636 13.3034 1.16291 12.1282ZM16.208 12.1282L24.0576 0H29L23.9123 10.3654C24.9783 10.8355 25.8505 11.5876 26.5288 12.6218C27.2072 13.609 27.5464 14.7137 27.5464 15.9359C27.5464 17.5812 26.9407 19.015 25.7293 20.2372C24.518 21.4124 23.0401 22 21.2957 22C19.5514 22 18.0735 21.4124 16.8622 20.2372C15.6508 19.015 15.0451 17.5812 15.0451 15.9359C15.0451 14.5727 15.4327 13.3034 16.208 12.1282Z" fill="#FDC84A"/>
</svg>
