<svg width="38" height="32" viewBox="0 0 38 32" fill="none" xmlns="http://www.w3.org/2000/svg">
<path d="M10.7391 17.0896C12.3126 17.6249 13.5321 18.5042 14.3975 19.7276C15.2629 20.951 15.6957 22.4421 15.6957 24.2007C15.6957 26.4946 14.9482 28.368 13.4534 29.8208C11.9586 31.2736 10.1097 32 7.90683 32C5.62526 32 3.73706 31.2736 2.24224 29.8208C0.747412 28.2915 0 26.4182 0 24.2007C0 23.1302 0.118012 22.0597 0.354037 20.9892C0.668737 19.8423 1.2588 18.1983 2.12422 16.0573L7.67081 0H15.1056L10.7391 17.0896ZM33.0435 17.0896C34.617 17.6249 35.8364 18.5042 36.7019 19.7276C37.5673 20.951 38 22.4421 38 24.2007C38 26.4946 37.2526 28.368 35.7578 29.8208C34.2629 31.2736 32.4141 32 30.2112 32C27.9296 32 26.0414 31.2736 24.5466 29.8208C23.0518 28.2915 22.3043 26.4182 22.3043 24.2007C22.3043 23.1302 22.4224 22.0597 22.6584 20.9892C22.9731 19.8423 23.5631 18.1983 24.4286 16.0573L29.9752 0H37.4099L33.0435 17.0896Z" fill="#FDC84A"/>
</svg>
