<svg width="32" height="32" viewBox="0 0 32 32" fill="none" xmlns="http://www.w3.org/2000/svg">
<circle cx="16" cy="16" r="16" fill="#FDCA4A"/>
<path d="M16.4799 18.5199C16.3863 18.6137 16.2592 18.6665 16.1266 18.6666H15.8733C15.741 18.6651 15.6144 18.6125 15.5199 18.5199L12.0999 15.0933C12.0368 15.0307 12.0013 14.9455 12.0013 14.8566C12.0013 14.7677 12.0368 14.6825 12.0999 14.6199L12.5733 14.1466C12.6347 14.0839 12.7188 14.0486 12.8066 14.0486C12.8944 14.0486 12.9785 14.0839 13.0399 14.1466L15.9999 17.1133L18.9599 14.1466C19.0225 14.0835 19.1077 14.048 19.1966 14.048C19.2855 14.048 19.3707 14.0835 19.4333 14.1466L19.8999 14.6199C19.963 14.6825 19.9985 14.7677 19.9985 14.8566C19.9985 14.9455 19.963 15.0307 19.8999 15.0933L16.4799 18.5199Z" fill="black"/>
</svg>
