<svg width="16" height="16" viewBox="0 0 16 16" fill="none" xmlns="http://www.w3.org/2000/svg">
<path fill-rule="evenodd" clip-rule="evenodd" d="M0 7.99999C0 3.58172 3.58172 0 7.99999 0C10.1217 0 12.1565 0.842854 13.6568 2.34314C15.1571 3.84343 16 5.87826 16 7.99999C16 12.4183 12.4183 16 7.99999 16C3.58172 16 0 12.4183 0 7.99999ZM6.98396 10.68L11.48 6.18401C11.6273 6.02949 11.6273 5.78653 11.48 5.63201L11.056 5.20801C10.9004 5.05555 10.6515 5.05555 10.496 5.20801L6.70396 9L5.50397 7.80801C5.43138 7.73066 5.33004 7.68679 5.22397 7.68679C5.1179 7.68679 5.01655 7.73066 4.94397 7.80801L4.51997 8.23201C4.44424 8.30711 4.40165 8.40935 4.40165 8.516C4.40165 8.62266 4.44424 8.7249 4.51997 8.8L6.42396 10.68C6.49655 10.7573 6.5979 10.8012 6.70396 10.8012C6.81003 10.8012 6.91138 10.7573 6.98396 10.68Z" fill="#FDC84A"/>
</svg>
