<svg width="17" height="13" viewBox="0 0 17 13" fill="none" xmlns="http://www.w3.org/2000/svg">
<path d="M16.8501 2.24999L6.2501 12.85C6.15621 12.9447 6.02842 12.9979 5.8951 12.9979C5.76178 12.9979 5.63398 12.9447 5.5401 12.85L0.150096 7.45999C0.0554401 7.36611 0.00219727 7.23831 0.00219727 7.10499C0.00219727 6.97168 0.0554401 6.84388 0.150096 6.74999L0.850096 6.04999C0.94398 5.95534 1.07178 5.9021 1.2051 5.9021C1.33842 5.9021 1.46621 5.95534 1.5601 6.04999L5.8901 10.38L15.4401 0.829995C15.6379 0.638211 15.9523 0.638211 16.1501 0.829995L16.8501 1.53999C16.9448 1.63388 16.998 1.76168 16.998 1.89499C16.998 2.02831 16.9448 2.15611 16.8501 2.24999Z" fill="#FDC84A"/>
</svg>
