<svg width="13" height="13" viewBox="0 0 13 13" fill="none" xmlns="http://www.w3.org/2000/svg">
<path fill-rule="evenodd" clip-rule="evenodd" d="M6.66664 1.99985V1.33318C6.66507 1.24078 6.70117 1.15173 6.76664 1.08651C6.83977 1.02208 6.93627 0.990718 7.03331 0.999845C9.69922 1.17761 11.8222 3.3006 12 5.96651C12.0054 6.05906 11.9743 6.15004 11.9133 6.21985C11.8481 6.28532 11.759 6.32142 11.6666 6.31985H11C10.8258 6.3204 10.6806 6.18679 10.6666 6.01318C10.5147 4.04712 8.9527 2.48507 6.98664 2.33318C6.80778 2.32602 6.6665 2.17886 6.66664 1.99985ZM6.77998 3.75992C6.70717 3.82388 6.6658 3.91635 6.66664 4.01326V4.67992C6.66394 4.83929 6.77663 4.97734 6.93331 5.00659C7.46935 5.10472 7.89172 5.51917 7.99998 6.05326C8.02923 6.20993 8.16728 6.32263 8.32664 6.31992H8.99331C9.09022 6.32077 9.18269 6.2794 9.24664 6.20659C9.3094 6.13278 9.33841 6.03608 9.32664 5.93992C9.15254 4.76648 8.2329 3.84414 7.05998 3.66659C6.96187 3.65842 6.86492 3.69236 6.79331 3.75992H6.77998ZM10.7267 12.6067C10.4761 12.8587 10.1354 13.0003 9.78 13H9.33333C8.21953 12.9953 7.12442 12.7135 6.14667 12.18L5.84667 12.0134C3.77383 10.8989 2.07446 9.19954 0.960001 7.12671L0.793334 6.82671C0.273426 5.8545 0.000958134 4.76921 4.17951e-07 3.66671V3.22004C-0.000280747 2.86468 0.141308 2.52391 0.393334 2.27338L1.52 1.14671C1.62942 1.03644 1.78387 0.983293 1.93797 1.00288C2.09208 1.02247 2.22832 1.11257 2.30667 1.24671L3.80667 3.82004C3.95835 4.08197 3.91455 4.41321 3.7 4.62671L2.44 5.88671C2.33536 5.9902 2.31098 6.15006 2.38 6.28004L2.61333 6.72004C3.45136 8.27235 4.72618 9.54484 6.28 10.38L6.72 10.62C6.84998 10.6891 7.00984 10.6647 7.11333 10.56L8.37333 9.30004C8.58683 9.08549 8.91807 9.04169 9.18 9.19338L11.7533 10.6934C11.8875 10.7717 11.9776 10.908 11.9972 11.0621C12.0168 11.2162 11.9636 11.3706 11.8533 11.48L10.7267 12.6067Z" fill="#F13A66"/>
</svg>

